<?xml version="1.0" standalone="no"?><!DOCTYPE svg PUBLIC "-//W3C//DTD SVG 1.1//EN" "http://www.w3.org/Graphics/SVG/1.1/DTD/svg11.dtd"><svg width="100%" height="100%" viewBox="0 0 93 61" version="1.1" xmlns="http://www.w3.org/2000/svg" xmlns:xlink="http://www.w3.org/1999/xlink" xml:space="preserve" style="fill-rule:evenodd;clip-rule:evenodd;stroke-linecap:round;stroke-linejoin:round;stroke-miterlimit:1.41421;"><path d="M57.373,57.397l1.817,-26.61c0,0 0.138,-1.011 0.525,-2.029c2.217,-5.835 12.079,-3.87 7.097,4.013c-2.105,3.332 -7.137,4.672 -12.268,6.285c-4.855,1.252 -6.963,-2.734 -6.963,-2.734c0,0 -3.203,-4.535 -0.132,-8.359c3.19,-3.971 9.923,-0.411 4.945,4.059c-1.545,1.387 -6.808,5.703 -10.804,7.034c-4.855,1.252 -6.963,-2.734 -6.963,-2.734c0,0 -3.204,-4.535 -0.132,-8.359c3.19,-3.971 9.922,-0.411 4.945,4.059c-1.545,1.387 -6.663,5.834 -11.45,7.277" style="fill:none;stroke-width:4px;stroke:#8c00ff;"/><path d="M4.711,30.953l3.589,-25.409c0,0 28.57,-7.299 19.526,22.235c-3.637,11.878 -18.004,12.077 -24.362,11.184" style="fill:none;stroke-width:4px;stroke:#8c00ff;"/><path d="M67.891,40.136c2.988,-2.239 4.169,-4.009 5.623,-7.521c1.235,-2.982 11.809,-29.268 3.881,-29.151c-4.641,0.069 -6.114,21.589 2.885,22.274c2.059,0.156 -0.227,12.39 1.874,12.315c4.401,-0.158 7.059,-11.694 7.059,-11.694l-2.894,30.914" style="fill:none;stroke-width:4px;stroke:#8c00ff;"/></svg>